<svg width="207" height="62" viewBox="0 0 207 62" fill="none" xmlns="http://www.w3.org/2000/svg">
<g clip-path="url(#clip0)">
<path d="M22.7825 40.1768L28.2395 34.447L34.4468 40.1768H45.0878L28.1713 23.6013L11.3911 40.1768H22.7825Z" fill="white"/>
<path d="M38.4033 13.5742L30.3543 21.7596L35.6749 27.2166L38.4033 24.4881L53.3418 39.3583C49.9312 48.4305 41.2 54.9106 30.9 54.9106C17.6669 54.9106 6.95762 44.2014 6.95762 30.9682C7.02583 17.7351 17.7351 7.02583 30.9682 7.02583C42.7007 7.02583 52.5232 15.5523 54.5014 26.6709L61.7318 34.3106C61.8683 33.2192 61.9365 32.0596 61.9365 30.9682C61.9365 22.7146 58.7305 14.9384 52.8643 9.07219C46.998 3.20596 39.2219 0 30.9682 0C22.6464 0 14.9384 3.20596 9.07219 9.07219C3.20596 14.9384 0 22.6464 0 30.9682C0 39.2901 3.20596 46.998 9.07219 52.8643C14.9384 58.7305 22.7146 61.9365 30.9682 61.9365C39.2219 61.9365 46.998 58.7305 52.8643 52.8643C56.4795 49.249 59.0716 44.9517 60.504 40.2451C60.7769 39.4265 60.9815 38.5398 61.1861 37.7212L54.9106 31.1047L38.4033 13.5742Z" fill="white"/>
</g>
<path d="M87.4886 19.9H92.0426L89.5586 32.389H97.2406L96.5046 36H84.2686L87.4886 19.9ZM101.527 19.9H106.081L102.861 36H98.3067L101.527 19.9ZM113.162 23.419L112.449 26.961H119.556L118.843 30.48H111.759L110.655 36H106.101L109.321 19.9H121.925L121.212 23.419H113.162ZM127.85 23.419L127.321 26.133H134.474L133.807 29.537H126.631L126.056 32.481H134.497L133.761 36H120.858L124.078 19.9H136.682L135.969 23.419H127.85ZM142.222 23.511H137.277L138.013 19.9H152.434L151.698 23.511H146.776L144.269 36H139.715L142.222 23.511ZM159.38 36.322C157.754 36.322 156.336 36.023 155.125 35.425C153.929 34.827 153.001 33.9913 152.342 32.918C151.698 31.8447 151.376 30.618 151.376 29.238C151.376 27.398 151.797 25.742 152.641 24.27C153.499 22.798 154.688 21.648 156.206 20.82C157.739 19.992 159.479 19.578 161.427 19.578C163.052 19.578 164.463 19.877 165.659 20.475C166.87 21.073 167.798 21.9087 168.442 22.982C169.101 24.0553 169.431 25.282 169.431 26.662C169.431 28.502 169.001 30.158 168.143 31.63C167.299 33.102 166.111 34.252 164.578 35.08C163.06 35.908 161.327 36.322 159.38 36.322ZM159.771 32.55C160.783 32.55 161.672 32.297 162.439 31.791C163.205 31.285 163.796 30.6103 164.21 29.767C164.624 28.9083 164.831 27.9653 164.831 26.938C164.831 25.8493 164.493 24.983 163.819 24.339C163.159 23.6797 162.232 23.35 161.036 23.35C160.024 23.35 159.134 23.603 158.368 24.109C157.601 24.615 157.011 25.2973 156.597 26.156C156.183 26.9993 155.976 27.9347 155.976 28.962C155.976 30.0507 156.305 30.9247 156.965 31.584C157.639 32.228 158.575 32.55 159.771 32.55ZM177.98 36.322C176.584 36.322 175.381 36.092 174.369 35.632C173.357 35.1567 172.582 34.482 172.046 33.608C171.509 32.734 171.241 31.7067 171.241 30.526C171.241 30.0353 171.302 29.468 171.425 28.824L173.219 19.9H177.773L176.002 28.755C175.91 29.215 175.864 29.6367 175.864 30.02C175.864 31.7067 176.753 32.55 178.532 32.55C179.498 32.55 180.257 32.2587 180.809 31.676C181.376 31.078 181.798 30.1043 182.074 28.755L183.845 19.9H188.33L186.513 29.031C185.531 33.8917 182.687 36.322 177.98 36.322ZM204.801 25.029C204.801 26.501 204.41 27.7737 203.628 28.847C202.846 29.905 201.75 30.6793 200.339 31.17L203.076 36H198.315L195.923 31.722H193.623L192.772 36H188.218L191.438 19.9H198.315C200.37 19.9 201.964 20.3523 203.099 21.257C204.234 22.1617 204.801 23.419 204.801 25.029ZM200.201 25.466C200.201 24.8067 199.979 24.316 199.534 23.994C199.089 23.6567 198.468 23.488 197.671 23.488H195.279L194.313 28.203H197.027C198.039 28.203 198.821 27.9653 199.373 27.49C199.925 27.0147 200.201 26.34 200.201 25.466Z" fill="white"/>
<defs>
<clipPath id="clip0">
<rect width="61.8683" height="61.8683" fill="white"/>
</clipPath>
</defs>
</svg>
